<svg width="800" height="450" viewBox="0 0 800 450" xmlns="http://www.w3.org/2000/svg">
  <defs>
    <radialGradient id="bg" cx="50%" cy="34%" r="80%">
      <stop offset="0%" stop-color="#7dffb0" stop-opacity="0.5"/>
      <stop offset="45%" stop-color="#1f8f5f" stop-opacity="0.28"/>
      <stop offset="100%" stop-color="#05050a" stop-opacity="1"/>
    </radialGradient>
    <radialGradient id="skin" cx="35%" cy="28%" r="75%">
      <stop offset="0%" stop-color="#daffe9"/>
      <stop offset="100%" stop-color="#a6d9b8"/>
    </radialGradient>
  </defs>
  <rect width="800" height="450" fill="#05050a"/>
  <rect width="800" height="450" fill="url(#bg)"/>
  <circle cx="740.6" cy="220.6" r="1.4" fill="#eaf6ff" opacity="0.79"/><circle cx="406.5" cy="264.7" r="0.5" fill="#eaf6ff" opacity="0.75"/><circle cx="405.0" cy="257.5" r="0.7" fill="#eaf6ff" opacity="0.40"/><circle cx="252.0" cy="19.6" r="1.3" fill="#eaf6ff" opacity="0.32"/><circle cx="500.7" cy="334.6" r="1.5" fill="#eaf6ff" opacity="0.45"/><circle cx="518.9" cy="210.7" r="1.5" fill="#eaf6ff" opacity="0.25"/><circle cx="0.4" cy="106.2" r="1.3" fill="#eaf6ff" opacity="0.42"/><circle cx="209.6" cy="317.0" r="0.5" fill="#eaf6ff" opacity="0.26"/><circle cx="158.7" cy="263.9" r="0.6" fill="#eaf6ff" opacity="0.74"/><circle cx="519.2" cy="30.3" r="0.9" fill="#eaf6ff" opacity="0.31"/><circle cx="66.7" cy="99.4" r="1.4" fill="#eaf6ff" opacity="0.58"/><circle cx="657.7" cy="304.7" r="0.5" fill="#eaf6ff" opacity="0.48"/><circle cx="741.8" cy="16.9" r="1.2" fill="#eaf6ff" opacity="0.37"/><circle cx="605.2" cy="244.4" r="0.8" fill="#eaf6ff" opacity="0.61"/><circle cx="149.4" cy="220.4" r="0.6" fill="#eaf6ff" opacity="0.45"/><circle cx="401.3" cy="291.0" r="1.5" fill="#eaf6ff" opacity="0.41"/><circle cx="758.6" cy="301.8" r="1.2" fill="#eaf6ff" opacity="0.75"/><circle cx="766.9" cy="236.2" r="0.6" fill="#eaf6ff" opacity="0.48"/><circle cx="31.2" cy="65.0" r="1.5" fill="#eaf6ff" opacity="0.23"/><circle cx="260.1" cy="159.2" r="0.5" fill="#eaf6ff" opacity="0.21"/><circle cx="643.8" cy="239.4" r="1.2" fill="#eaf6ff" opacity="0.35"/><circle cx="164.8" cy="239.1" r="0.6" fill="#eaf6ff" opacity="0.22"/><circle cx="443.1" cy="41.6" r="1.2" fill="#eaf6ff" opacity="0.57"/><circle cx="313.2" cy="117.7" r="0.7" fill="#eaf6ff" opacity="0.46"/><circle cx="535.5" cy="25.7" r="1.2" fill="#eaf6ff" opacity="0.79"/><circle cx="240.9" cy="174.0" r="1.3" fill="#eaf6ff" opacity="0.45"/><circle cx="308.5" cy="95.9" r="1.5" fill="#eaf6ff" opacity="0.62"/><circle cx="76.5" cy="324.8" r="1.5" fill="#eaf6ff" opacity="0.54"/><circle cx="186.9" cy="106.4" r="0.5" fill="#eaf6ff" opacity="0.23"/><circle cx="363.1" cy="61.7" r="1.5" fill="#eaf6ff" opacity="0.62"/><circle cx="121.3" cy="11.4" r="1.0" fill="#eaf6ff" opacity="0.47"/><circle cx="14.4" cy="63.8" r="1.0" fill="#eaf6ff" opacity="0.33"/><circle cx="210.3" cy="239.9" r="0.4" fill="#eaf6ff" opacity="0.27"/><circle cx="403.0" cy="322.9" r="0.5" fill="#eaf6ff" opacity="0.38"/><circle cx="256.6" cy="271.3" r="1.0" fill="#eaf6ff" opacity="0.54"/><circle cx="383.5" cy="180.7" r="0.5" fill="#eaf6ff" opacity="0.56"/><circle cx="655.2" cy="134.5" r="1.1" fill="#eaf6ff" opacity="0.66"/><circle cx="647.0" cy="278.7" r="1.4" fill="#eaf6ff" opacity="0.66"/><circle cx="615.9" cy="108.9" r="1.3" fill="#eaf6ff" opacity="0.69"/><circle cx="611.0" cy="8.6" r="0.9" fill="#eaf6ff" opacity="0.52"/><circle cx="118.9" cy="311.1" r="0.4" fill="#eaf6ff" opacity="0.50"/><circle cx="640.8" cy="249.7" r="1.0" fill="#eaf6ff" opacity="0.47"/><circle cx="3.9" cy="170.2" r="0.7" fill="#eaf6ff" opacity="0.36"/><circle cx="5.6" cy="256.0" r="1.6" fill="#eaf6ff" opacity="0.44"/><circle cx="191.7" cy="152.9" r="0.4" fill="#eaf6ff" opacity="0.30"/><circle cx="167.1" cy="169.3" r="1.6" fill="#eaf6ff" opacity="0.58"/><circle cx="40.5" cy="0.9" r="0.5" fill="#eaf6ff" opacity="0.29"/><circle cx="601.9" cy="43.7" r="0.6" fill="#eaf6ff" opacity="0.57"/><circle cx="34.1" cy="230.8" r="1.7" fill="#eaf6ff" opacity="0.37"/><circle cx="756.8" cy="108.3" r="0.7" fill="#eaf6ff" opacity="0.46"/><circle cx="4.7" cy="146.9" r="1.1" fill="#eaf6ff" opacity="0.48"/><circle cx="138.1" cy="242.4" r="0.5" fill="#eaf6ff" opacity="0.74"/><circle cx="288.0" cy="128.2" r="0.4" fill="#eaf6ff" opacity="0.73"/><circle cx="533.3" cy="12.6" r="1.3" fill="#eaf6ff" opacity="0.44"/><circle cx="212.5" cy="91.5" r="1.7" fill="#eaf6ff" opacity="0.29"/><g opacity="0.7" transform="translate(767.3,228.5)"><path d="M0,-6 L1.5,-1.5 L6,0 L1.5,1.5 L0,6 L-1.5,1.5 L-6,0 L-1.5,-1.5 Z" fill="#7dffb0"/></g><g opacity="0.7" transform="translate(105.2,54.1)"><path d="M0,-6 L1.5,-1.5 L6,0 L1.5,1.5 L0,6 L-1.5,1.5 L-6,0 L-1.5,-1.5 Z" fill="#7dffb0"/></g><g opacity="0.7" transform="translate(321.3,162.7)"><path d="M0,-6 L1.5,-1.5 L6,0 L1.5,1.5 L0,6 L-1.5,1.5 L-6,0 L-1.5,-1.5 Z" fill="#7dffb0"/></g><g opacity="0.7" transform="translate(329.2,17.7)"><path d="M0,-6 L1.5,-1.5 L6,0 L1.5,1.5 L0,6 L-1.5,1.5 L-6,0 L-1.5,-1.5 Z" fill="#7dffb0"/></g>
  <circle cx="400" cy="235" r="150" fill="none" stroke="#7dffb0" stroke-opacity="0.28" stroke-width="1.5" stroke-dasharray="4 10"/>
  <circle cx="400" cy="235" r="185" fill="none" stroke="#7dffb0" stroke-opacity="0.14" stroke-width="1"/>
  <path d="M 324 175
    Q 283.32183409974255 161.83222448196176 269.2215165449864 165.0585899672032
    Q 294.32183409974255 167.83222448196176 346 175
    Z" fill="#1f6b4f"/><path d="M 345 158
    Q 305.18530160058856 119.70464192948964 306.24600291016105 102.37207623543571
    Q 315.18530160058856 125.70464192948964 365 158
    Z" fill="#1f6b4f"/><path d="M 387 150
    Q 393.5 117 400 104
    Q 406.5 123 413 150
    Z" fill="#1f6b4f"/><path d="M 435 158
    Q 484.8146983994114 119.70464192948964 493.7539970898389 102.3720762354357
    Q 494.8146983994114 125.70464192948964 455 158
    Z" fill="#1f6b4f"/><path d="M 454 175
    Q 505.67816590025745 161.83222448196176 530.7784834550135 165.0585899672032
    Q 516.6781659002575 167.83222448196176 476 175
    Z" fill="#1f6b4f"/>
  <!-- robe / shoulders -->
  <path d="M 280 470 Q 270 330 330 300 L 470 300 Q 530 330 520 470 Z" fill="#2c5c46"/>
  <!-- head -->
  <ellipse cx="400" cy="240" rx="95" ry="88" fill="url(#skin)"/>
  <!-- ears / small side fins instead of ears, echoing a sea-creature look -->
  <path d="M 305 230 Q 282 215 300 255 Z" fill="#a6d9b8"/>
  <path d="M 495 230 Q 518 215 500 255 Z" fill="#a6d9b8"/>
  <!-- eyes -->
  <ellipse cx="365" cy="245" rx="17" ry="23" fill="#0c0c14"/>
  <ellipse cx="435" cy="245" rx="17" ry="23" fill="#0c0c14"/>
  <circle cx="371" cy="236" r="5" fill="#fff"/>
  <circle cx="441" cy="236" r="5" fill="#fff"/>
  <circle cx="360" cy="251" r="2" fill="#7dffb0"/>
  <circle cx="430" cy="251" r="2" fill="#7dffb0"/>
  <!-- blush -->
  <ellipse cx="340" cy="273" rx="12" ry="7" fill="#7dffb0" opacity="0.35"/>
  <ellipse cx="460" cy="273" rx="12" ry="7" fill="#7dffb0" opacity="0.35"/>
  <!-- mouth -->
  <path d="M 390 283 Q 400 291 410 283" stroke="#2a1f30" stroke-width="2.5" fill="none" stroke-linecap="round"/>
  
        <g transform="translate(505,245) rotate(-14)">
          <rect x="-5" y="-85" width="10" height="115" rx="5" fill="#7a8f8a"/>
          <path d="M-22,-85 L-16,-118 L-6,-98 L0,-124 L6,-98 L16,-118 L22,-85 L12,-85 L0,-108 L-12,-85 Z" fill="#1f8f5f"/>
        </g>
</svg>