<svg width="800" height="450" viewBox="0 0 800 450" xmlns="http://www.w3.org/2000/svg">
  <defs>
    <radialGradient id="bg" cx="50%" cy="34%" r="80%">
      <stop offset="0%" stop-color="#8fe6ff" stop-opacity="0.5"/>
      <stop offset="45%" stop-color="#2f6fae" stop-opacity="0.28"/>
      <stop offset="100%" stop-color="#05050a" stop-opacity="1"/>
    </radialGradient>
    <radialGradient id="skin" cx="35%" cy="28%" r="75%">
      <stop offset="0%" stop-color="#dff3ff"/>
      <stop offset="100%" stop-color="#a9c9dd"/>
    </radialGradient>
  </defs>
  <rect width="800" height="450" fill="#05050a"/>
  <rect width="800" height="450" fill="url(#bg)"/>
  <circle cx="519.9" cy="305.2" r="0.7" fill="#eaf6ff" opacity="0.26"/><circle cx="182.6" cy="256.3" r="0.6" fill="#eaf6ff" opacity="0.40"/><circle cx="641.9" cy="114.4" r="1.2" fill="#eaf6ff" opacity="0.71"/><circle cx="762.2" cy="175.2" r="0.7" fill="#eaf6ff" opacity="0.47"/><circle cx="355.7" cy="197.1" r="0.7" fill="#eaf6ff" opacity="0.69"/><circle cx="94.1" cy="263.4" r="0.4" fill="#eaf6ff" opacity="0.39"/><circle cx="352.6" cy="182.6" r="1.1" fill="#eaf6ff" opacity="0.59"/><circle cx="588.1" cy="125.3" r="1.5" fill="#eaf6ff" opacity="0.22"/><circle cx="49.9" cy="137.5" r="1.5" fill="#eaf6ff" opacity="0.25"/><circle cx="624.5" cy="215.0" r="1.5" fill="#eaf6ff" opacity="0.42"/><circle cx="613.1" cy="266.1" r="1.1" fill="#eaf6ff" opacity="0.60"/><circle cx="242.8" cy="299.1" r="1.4" fill="#eaf6ff" opacity="0.69"/><circle cx="511.2" cy="159.9" r="1.3" fill="#eaf6ff" opacity="0.37"/><circle cx="164.0" cy="169.3" r="0.6" fill="#eaf6ff" opacity="0.43"/><circle cx="406.0" cy="298.2" r="0.9" fill="#eaf6ff" opacity="0.31"/><circle cx="546.0" cy="242.3" r="1.6" fill="#eaf6ff" opacity="0.22"/><circle cx="574.1" cy="60.1" r="0.8" fill="#eaf6ff" opacity="0.70"/><circle cx="273.0" cy="22.3" r="0.9" fill="#eaf6ff" opacity="0.70"/><circle cx="462.4" cy="12.2" r="0.4" fill="#eaf6ff" opacity="0.39"/><circle cx="776.9" cy="163.3" r="1.2" fill="#eaf6ff" opacity="0.61"/><circle cx="377.0" cy="33.8" r="1.1" fill="#eaf6ff" opacity="0.47"/><circle cx="793.5" cy="32.1" r="1.5" fill="#eaf6ff" opacity="0.66"/><circle cx="505.6" cy="29.1" r="1.5" fill="#eaf6ff" opacity="0.57"/><circle cx="451.3" cy="220.4" r="0.9" fill="#eaf6ff" opacity="0.62"/><circle cx="472.8" cy="189.6" r="1.6" fill="#eaf6ff" opacity="0.25"/><circle cx="293.5" cy="219.8" r="1.1" fill="#eaf6ff" opacity="0.37"/><circle cx="229.4" cy="132.0" r="1.3" fill="#eaf6ff" opacity="0.35"/><circle cx="33.6" cy="34.5" r="1.7" fill="#eaf6ff" opacity="0.75"/><circle cx="674.0" cy="285.5" r="0.9" fill="#eaf6ff" opacity="0.42"/><circle cx="244.5" cy="331.1" r="0.4" fill="#eaf6ff" opacity="0.66"/><circle cx="9.2" cy="129.4" r="1.2" fill="#eaf6ff" opacity="0.76"/><circle cx="580.5" cy="113.8" r="0.5" fill="#eaf6ff" opacity="0.51"/><circle cx="230.0" cy="30.2" r="0.5" fill="#eaf6ff" opacity="0.74"/><circle cx="133.0" cy="24.3" r="1.1" fill="#eaf6ff" opacity="0.68"/><circle cx="546.2" cy="267.0" r="0.9" fill="#eaf6ff" opacity="0.44"/><circle cx="719.2" cy="129.2" r="1.2" fill="#eaf6ff" opacity="0.40"/><circle cx="138.2" cy="281.7" r="1.0" fill="#eaf6ff" opacity="0.31"/><circle cx="304.5" cy="295.3" r="1.5" fill="#eaf6ff" opacity="0.62"/><circle cx="645.4" cy="178.3" r="0.6" fill="#eaf6ff" opacity="0.64"/><circle cx="558.2" cy="114.1" r="0.4" fill="#eaf6ff" opacity="0.65"/><circle cx="388.8" cy="86.0" r="0.5" fill="#eaf6ff" opacity="0.25"/><circle cx="542.0" cy="64.9" r="1.0" fill="#eaf6ff" opacity="0.66"/><circle cx="326.4" cy="84.0" r="1.6" fill="#eaf6ff" opacity="0.31"/><circle cx="532.3" cy="201.8" r="1.6" fill="#eaf6ff" opacity="0.31"/><circle cx="142.2" cy="14.0" r="0.6" fill="#eaf6ff" opacity="0.25"/><circle cx="776.1" cy="78.9" r="1.3" fill="#eaf6ff" opacity="0.27"/><circle cx="468.4" cy="192.5" r="1.6" fill="#eaf6ff" opacity="0.63"/><circle cx="779.6" cy="250.6" r="0.3" fill="#eaf6ff" opacity="0.43"/><circle cx="40.6" cy="323.9" r="0.6" fill="#eaf6ff" opacity="0.35"/><circle cx="730.4" cy="283.3" r="1.3" fill="#eaf6ff" opacity="0.39"/><circle cx="587.3" cy="324.6" r="1.1" fill="#eaf6ff" opacity="0.38"/><circle cx="253.2" cy="31.3" r="1.6" fill="#eaf6ff" opacity="0.33"/><circle cx="251.7" cy="24.0" r="0.4" fill="#eaf6ff" opacity="0.59"/><circle cx="98.7" cy="123.7" r="1.0" fill="#eaf6ff" opacity="0.50"/><circle cx="347.3" cy="101.2" r="1.2" fill="#eaf6ff" opacity="0.63"/><g opacity="0.7" transform="translate(365.5,251.8)"><path d="M0,-6 L1.5,-1.5 L6,0 L1.5,1.5 L0,6 L-1.5,1.5 L-6,0 L-1.5,-1.5 Z" fill="#8fe6ff"/></g><g opacity="0.7" transform="translate(516.6,105.2)"><path d="M0,-6 L1.5,-1.5 L6,0 L1.5,1.5 L0,6 L-1.5,1.5 L-6,0 L-1.5,-1.5 Z" fill="#8fe6ff"/></g><g opacity="0.7" transform="translate(647.1,168.2)"><path d="M0,-6 L1.5,-1.5 L6,0 L1.5,1.5 L0,6 L-1.5,1.5 L-6,0 L-1.5,-1.5 Z" fill="#8fe6ff"/></g><g opacity="0.7" transform="translate(411.4,184.4)"><path d="M0,-6 L1.5,-1.5 L6,0 L1.5,1.5 L0,6 L-1.5,1.5 L-6,0 L-1.5,-1.5 Z" fill="#8fe6ff"/></g>
  <circle cx="400" cy="235" r="150" fill="none" stroke="#8fe6ff" stroke-opacity="0.28" stroke-width="1.5" stroke-dasharray="4 10"/>
  <circle cx="400" cy="235" r="185" fill="none" stroke="#8fe6ff" stroke-opacity="0.14" stroke-width="1"/>
  <path d="M 324 175
    Q 283.32183409974255 161.83222448196176 269.2215165449864 165.0585899672032
    Q 294.32183409974255 167.83222448196176 346 175
    Z" fill="#3a7ea8"/><path d="M 345 158
    Q 305.18530160058856 119.70464192948964 306.24600291016105 102.37207623543571
    Q 315.18530160058856 125.70464192948964 365 158
    Z" fill="#3a7ea8"/><path d="M 387 150
    Q 393.5 117 400 104
    Q 406.5 123 413 150
    Z" fill="#3a7ea8"/><path d="M 435 158
    Q 484.8146983994114 119.70464192948964 493.7539970898389 102.3720762354357
    Q 494.8146983994114 125.70464192948964 455 158
    Z" fill="#3a7ea8"/><path d="M 454 175
    Q 505.67816590025745 161.83222448196176 530.7784834550135 165.0585899672032
    Q 516.6781659002575 167.83222448196176 476 175
    Z" fill="#3a7ea8"/>
  <!-- robe / shoulders -->
  <path d="M 280 470 Q 270 330 330 300 L 470 300 Q 530 330 520 470 Z" fill="#3a5f86"/>
  <!-- head -->
  <ellipse cx="400" cy="240" rx="95" ry="88" fill="url(#skin)"/>
  <!-- ears / small side fins instead of ears, echoing a sea-creature look -->
  <path d="M 305 230 Q 282 215 300 255 Z" fill="#a9c9dd"/>
  <path d="M 495 230 Q 518 215 500 255 Z" fill="#a9c9dd"/>
  <!-- eyes -->
  <ellipse cx="365" cy="245" rx="17" ry="23" fill="#0c0c14"/>
  <ellipse cx="435" cy="245" rx="17" ry="23" fill="#0c0c14"/>
  <circle cx="371" cy="236" r="5" fill="#fff"/>
  <circle cx="441" cy="236" r="5" fill="#fff"/>
  <circle cx="360" cy="251" r="2" fill="#8fe6ff"/>
  <circle cx="430" cy="251" r="2" fill="#8fe6ff"/>
  <!-- blush -->
  <ellipse cx="340" cy="273" rx="12" ry="7" fill="#8fe6ff" opacity="0.35"/>
  <ellipse cx="460" cy="273" rx="12" ry="7" fill="#8fe6ff" opacity="0.35"/>
  <!-- mouth -->
  <path d="M 390 283 Q 400 291 410 283" stroke="#2a1f30" stroke-width="2.5" fill="none" stroke-linecap="round"/>
  
        <g transform="translate(500,235)">
          <rect x="-4" y="-90" width="8" height="150" rx="4" fill="#caa86a"/>
          <circle cx="0" cy="-100" r="16" fill="#2f6fae" opacity="0.85"/>
          <circle cx="0" cy="-100" r="24" fill="#2f6fae" opacity="0.25"/>
        </g>
</svg>